<svg width="18" height="24" viewBox="0 0 18 24" fill="none" xmlns="http://www.w3.org/2000/svg">
<path fill-rule="evenodd" clip-rule="evenodd" d="M5.39705 3.25397C5.44695 3.18981 5.50622 3.1389 5.57147 3.10416C5.63672 3.06942 5.70668 3.05154 5.77733 3.05154C5.84798 3.05154 5.91793 3.06942 5.98318 3.10416C6.04844 3.1389 6.10771 3.18981 6.1576 3.25397L12.6029 11.5224C12.6529 11.5864 12.6926 11.6625 12.7197 11.7462C12.7468 11.8299 12.7607 11.9196 12.7607 12.0103C12.7607 12.1009 12.7468 12.1906 12.7197 12.2743C12.6926 12.3581 12.6529 12.4341 12.6029 12.4981L6.1576 20.7665C6.05675 20.8959 5.91996 20.9686 5.77733 20.9686C5.6347 20.9686 5.49791 20.8959 5.39705 20.7665C5.2962 20.6372 5.23954 20.4617 5.23954 20.2787C5.23954 20.0957 5.2962 19.9202 5.39705 19.7909L11.4632 12.0103L5.39705 4.22965C5.34703 4.16565 5.30735 4.08961 5.28027 4.0059C5.2532 3.92219 5.23926 3.83245 5.23926 3.74181C5.23926 3.65118 5.2532 3.56144 5.28027 3.47773C5.30735 3.39402 5.34703 3.31798 5.39705 3.25397Z" fill="#333333"/>
</svg>
