<svg width="25" height="24" viewBox="0 0 25 24" fill="none" xmlns="http://www.w3.org/2000/svg">
<path d="M12.2339 2C6.72983 2 2.24394 6.45 2.24394 11.91C2.24394 13.66 2.70765 15.36 3.57459 16.86L2.1633 22L7.45564 20.62C8.91733 21.41 10.5605 21.83 12.2339 21.83C17.7379 21.83 22.2238 17.38 22.2238 11.92C22.2238 9.27 21.1855 6.78 19.3004 4.91C18.3762 3.98392 17.2754 3.24967 16.0621 2.75005C14.8489 2.25043 13.5475 1.99546 12.2339 2ZM12.2439 3.67C14.4617 3.67 16.5383 4.53 18.1109 6.09C18.8827 6.85535 19.4945 7.76432 19.9114 8.76476C20.3283 9.7652 20.5421 10.8374 20.5403 11.92C20.5403 16.46 16.8105 20.15 12.2339 20.15C10.7419 20.15 9.28023 19.76 8.01007 19L7.70765 18.83L4.56249 19.65L5.39919 16.61L5.19757 16.29C4.36485 14.9787 3.9244 13.4598 3.92741 11.91C3.93749 7.37 7.65725 3.67 12.2439 3.67ZM8.69556 7.33C8.53427 7.33 8.26209 7.39 8.03023 7.64C7.80846 7.89 7.15322 8.5 7.15322 9.71C7.15322 10.93 8.0504 12.1 8.16128 12.27C8.30241 12.44 9.93548 14.94 12.4456 16C13.0403 16.27 13.504 16.42 13.8669 16.53C14.4617 16.72 15.006 16.69 15.4395 16.63C15.9234 16.56 16.9113 16.03 17.123 15.45C17.3347 14.87 17.3347 14.38 17.2742 14.27C17.2036 14.17 17.0423 14.11 16.7903 14C16.5383 13.86 15.3085 13.26 15.0867 13.18C14.8548 13.1 14.7137 13.06 14.5222 13.3C14.3609 13.55 13.877 14.11 13.7359 14.27C13.5847 14.44 13.4435 14.46 13.2016 14.34C12.9395 14.21 12.1331 13.95 11.1855 13.11C10.4395 12.45 9.94556 11.64 9.79435 11.39C9.67338 11.15 9.78427 11 9.90523 10.89C10.0161 10.78 10.1774 10.6 10.2782 10.45C10.4093 10.31 10.4496 10.2 10.5302 10.04C10.6109 9.87 10.5706 9.73 10.5101 9.61C10.4496 9.5 9.94556 8.26 9.73386 7.77C9.53225 7.29 9.33064 7.35 9.16935 7.34C9.02822 7.34 8.86693 7.33 8.69556 7.33Z" fill="white"/>
</svg>
